<svg xmlns="http://www.w3.org/2000/svg" xmlns:xlink="http://www.w3.org/1999/xlink" width="40" zoomAndPan="magnify" viewBox="0 0 30 30.000001" height="40" preserveAspectRatio="xMidYMid meet" version="1.0"><defs><clipPath id="1f7b6f6d43"><path d="M 2 1.453125 L 17.175781 1.453125 L 17.175781 27 L 2 27 Z M 2 1.453125 " clip-rule="nonzero"/></clipPath><clipPath id="b4d54307df"><path d="M 13 1.453125 L 28 1.453125 L 28 27 L 13 27 Z M 13 1.453125 " clip-rule="nonzero"/></clipPath></defs><g clip-path="url(#1f7b6f6d43)"><path fill="#416a59" d="M 7.964844 14.40625 L 16.402344 5.964844 C 17.320312 5.050781 17.320312 3.566406 16.402344 2.652344 C 15.488281 1.738281 14.003906 1.738281 13.089844 2.652344 L 2.898438 12.84375 C 2.035156 13.707031 2.035156 15.105469 2.898438 15.96875 L 13.089844 26.160156 C 14.003906 27.074219 15.488281 27.074219 16.402344 26.160156 C 17.320312 25.246094 17.320312 23.761719 16.402344 22.847656 Z M 7.964844 14.40625 " fill-opacity="1" fill-rule="nonzero"/></g><g clip-path="url(#b4d54307df)"><path fill="#416a59" d="M 18.839844 14.40625 L 27.28125 5.964844 C 28.195312 5.050781 28.195312 3.566406 27.28125 2.652344 C 26.367188 1.738281 24.882812 1.738281 23.96875 2.652344 L 13.773438 12.84375 C 12.910156 13.707031 12.910156 15.105469 13.773438 15.96875 L 23.96875 26.160156 C 24.882812 27.074219 26.367188 27.074219 27.28125 26.160156 C 28.195312 25.246094 28.195312 23.761719 27.28125 22.847656 Z M 18.839844 14.40625 " fill-opacity="1" fill-rule="nonzero"/></g></svg>