<svg xmlns="http://www.w3.org/2000/svg" xmlns:xlink="http://www.w3.org/1999/xlink" width="1920" zoomAndPan="magnify" viewBox="0 0 1440 809.999993" height="1080" preserveAspectRatio="xMidYMid meet" version="1.0"><defs><clipPath id="c739d9b691"><path d="M -114.328125 -224.984375 L 2049.082031 703.535156 L 1677.554688 1569.175781 L -485.855469 640.652344 Z M -114.328125 -224.984375 " clip-rule="nonzero"/></clipPath><clipPath id="113a6ff1a3"><path d="M 63.488281 -148.667969 L 1573.53125 499.433594 L 1216.203125 1331.988281 L -293.839844 683.890625 Z M 63.488281 -148.667969 " clip-rule="nonzero"/></clipPath><clipPath id="891b18504a"><path d="M -114.316406 -224.980469 L 2049.09375 703.539062 L 1677.566406 1569.179688 L -485.84375 640.660156 Z M -114.316406 -224.980469 " clip-rule="nonzero"/></clipPath><clipPath id="cad3ed3401"><path d="M 0 121 L 1440 121 L 1440 810 L 0 810 Z M 0 121 " clip-rule="nonzero"/></clipPath><clipPath id="69aacd9084"><path d="M -114.328125 -224.984375 L 2049.082031 703.535156 L 1677.554688 1569.175781 L -485.855469 640.652344 Z M -114.328125 -224.984375 " clip-rule="nonzero"/></clipPath><clipPath id="54cb698ac2"><path d="M 63.488281 -148.667969 L 1573.53125 499.433594 L 1216.203125 1331.988281 L -293.839844 683.890625 Z M 63.488281 -148.667969 " clip-rule="nonzero"/></clipPath><clipPath id="2501a32c80"><path d="M -114.316406 -224.980469 L 2049.09375 703.539062 L 1677.566406 1569.179688 L -485.84375 640.660156 Z M -114.316406 -224.980469 " clip-rule="nonzero"/></clipPath><clipPath id="abb4f03788"><path d="M 0 294 L 1440 294 L 1440 810 L 0 810 Z M 0 294 " clip-rule="nonzero"/></clipPath><clipPath id="311869d557"><path d="M -114.328125 -224.984375 L 2049.082031 703.535156 L 1677.554688 1569.175781 L -485.855469 640.652344 Z M -114.328125 -224.984375 " clip-rule="nonzero"/></clipPath><clipPath id="08269106c4"><path d="M 63.488281 -148.667969 L 1573.53125 499.433594 L 1216.203125 1331.988281 L -293.839844 683.890625 Z M 63.488281 -148.667969 " clip-rule="nonzero"/></clipPath><clipPath id="88e5429863"><path d="M -114.316406 -224.980469 L 2049.09375 703.539062 L 1677.566406 1569.179688 L -485.84375 640.660156 Z M -114.316406 -224.980469 " clip-rule="nonzero"/></clipPath><clipPath id="bf28cd90f0"><path d="M 0 467 L 1440 467 L 1440 810 L 0 810 Z M 0 467 " clip-rule="nonzero"/></clipPath><clipPath id="4921acdb36"><path d="M -114.328125 -224.984375 L 2049.082031 703.535156 L 1677.554688 1569.175781 L -485.855469 640.652344 Z M -114.328125 -224.984375 " clip-rule="nonzero"/></clipPath><clipPath id="bb34e96ad9"><path d="M 63.488281 -148.667969 L 1573.53125 499.433594 L 1216.203125 1331.988281 L -293.839844 683.890625 Z M 63.488281 -148.667969 " clip-rule="nonzero"/></clipPath><clipPath id="1955aa74eb"><path d="M -114.316406 -224.980469 L 2049.09375 703.539062 L 1677.566406 1569.179688 L -485.84375 640.660156 Z M -114.316406 -224.980469 " clip-rule="nonzero"/></clipPath><clipPath id="586b75a5f8"><path d="M 186.296875 -627.023438 L 2349.707031 301.5 L 1978.179688 1167.136719 L -185.230469 238.617188 Z M 186.296875 -627.023438 " clip-rule="nonzero"/></clipPath><clipPath id="0ca1feb65b"><path d="M 1978.183594 1166.746094 L -185.226562 238.222656 L 186.300781 -627.414062 L 2349.710938 301.105469 Z M 1978.183594 1166.746094 " clip-rule="nonzero"/></clipPath><clipPath id="3e96170d84"><path d="M 1978.183594 1166.746094 L -185.226562 238.222656 L 186.300781 -627.414062 L 2349.710938 301.105469 Z M 1978.183594 1166.746094 " clip-rule="nonzero"/></clipPath><clipPath id="d0a63a4194"><path d="M 0 0 L 1440 0 L 1440 648 L 0 648 Z M 0 0 " clip-rule="nonzero"/></clipPath><clipPath id="1597ecd437"><path d="M 186.296875 -627.023438 L 2349.707031 301.5 L 1978.179688 1167.136719 L -185.230469 238.617188 Z M 186.296875 -627.023438 " clip-rule="nonzero"/></clipPath><clipPath id="f94cbe9fa2"><path d="M 1978.183594 1166.746094 L -185.226562 238.222656 L 186.300781 -627.414062 L 2349.710938 301.105469 Z M 1978.183594 1166.746094 " clip-rule="nonzero"/></clipPath><clipPath id="4aa9014b49"><path d="M 1978.183594 1166.746094 L -185.226562 238.222656 L 186.300781 -627.414062 L 2349.710938 301.105469 Z M 1978.183594 1166.746094 " clip-rule="nonzero"/></clipPath><clipPath id="36fca56a26"><path d="M 42 0 L 1440 0 L 1440 475 L 42 475 Z M 42 0 " clip-rule="nonzero"/></clipPath><clipPath id="fcc0ee1cd6"><path d="M 186.296875 -627.023438 L 2349.707031 301.5 L 1978.179688 1167.136719 L -185.230469 238.617188 Z M 186.296875 -627.023438 " clip-rule="nonzero"/></clipPath><clipPath id="30c4724eec"><path d="M 1978.183594 1166.746094 L -185.226562 238.222656 L 186.300781 -627.414062 L 2349.710938 301.105469 Z M 1978.183594 1166.746094 " clip-rule="nonzero"/></clipPath><clipPath id="ebe80a652d"><path d="M 1978.183594 1166.746094 L -185.226562 238.222656 L 186.300781 -627.414062 L 2349.710938 301.105469 Z M 1978.183594 1166.746094 " clip-rule="nonzero"/></clipPath></defs><rect x="-144" width="1728" fill="#ffffff" y="-80.999999" height="971.999992" fill-opacity="1"/><rect x="-144" width="1728" fill="#ffffff" y="-80.999999" height="971.999992" fill-opacity="1"/><g clip-path="url(#c739d9b691)"><g clip-path="url(#113a6ff1a3)"><g clip-path="url(#891b18504a)"><path fill="#595973" d="M -485.839844 640.660156 C -485.839844 640.660156 -188.617188 -51.851562 -188.617188 -51.851562 C -46.21875 22.9375 96.175781 97.726562 226.109375 169.714844 C 356.039062 241.703125 473.503906 310.890625 560.789062 356.921875 C 648.078125 402.957031 705.183594 425.835938 819.175781 447.316406 C 933.167969 468.800781 1104.050781 488.886719 1249.457031 519.230469 C 1394.863281 549.574219 1514.796875 590.179688 1652.472656 684.515625 C 1790.148438 778.847656 1945.566406 926.914062 2002.242188 967.894531 C 2058.917969 1008.875 2016.851562 942.769531 1974.785156 876.667969 L 1677.566406 1569.179688 Z M -485.839844 640.660156 " fill-opacity="1" fill-rule="nonzero"/></g></g></g><g clip-path="url(#cad3ed3401)"><g clip-path="url(#69aacd9084)"><g clip-path="url(#54cb698ac2)"><g clip-path="url(#2501a32c80)"><path fill="#50506d" d="M -485.839844 640.660156 C -485.839844 640.660156 -262.925781 121.277344 -262.925781 121.277344 C -169.074219 190.996094 -75.226562 260.71875 28.476562 307.851562 C 132.183594 354.980469 245.746094 379.515625 399.6875 415.917969 C 553.632812 452.316406 747.953125 500.578125 890.828125 554.953125 C 1033.703125 609.328125 1125.128906 669.820312 1230.460938 736.597656 C 1335.789062 803.375 1455.019531 876.4375 1597.898438 942.992188 C 1740.773438 1009.546875 1907.296875 1069.589844 1961.667969 1086.304688 C 2016.039062 1103.023438 1958.257812 1076.40625 1900.480469 1049.792969 L 1677.566406 1569.179688 Z M -485.839844 640.660156 " fill-opacity="1" fill-rule="nonzero"/></g></g></g></g><g clip-path="url(#abb4f03788)"><g clip-path="url(#311869d557)"><g clip-path="url(#08269106c4)"><g clip-path="url(#88e5429863)"><path fill="#454566" d="M -485.839844 640.660156 C -485.839844 640.660156 -337.230469 294.402344 -337.230469 294.402344 C -193.171875 381.703125 -49.117188 469.003906 55.230469 532.039062 C 159.574219 595.074219 224.210938 633.839844 328.441406 641.609375 C 432.671875 649.382812 576.492188 626.160156 699.710938 660.007812 C 822.929688 693.855469 925.539062 784.773438 1035.296875 880.921875 C 1145.054688 977.066406 1261.960938 1078.441406 1413.226562 1122.570312 C 1564.488281 1166.699219 1750.117188 1153.585938 1824.667969 1160.769531 C 1899.222656 1167.957031 1862.699219 1195.4375 1826.175781 1222.921875 L 1677.566406 1569.179688 Z M -485.839844 640.660156 " fill-opacity="1" fill-rule="nonzero"/></g></g></g></g><g clip-path="url(#bf28cd90f0)"><g clip-path="url(#4921acdb36)"><g clip-path="url(#bb34e96ad9)"><g clip-path="url(#1955aa74eb)"><path fill="#39395f" d="M -485.839844 640.660156 C -485.839844 640.660156 -411.535156 467.53125 -411.535156 467.53125 C -284.527344 560.824219 -157.515625 654.117188 -65.128906 693.089844 C 27.257812 732.058594 85.023438 716.707031 220.460938 779.785156 C 355.902344 842.863281 569.019531 984.371094 700.398438 1034.460938 C 831.777344 1084.554688 881.421875 1043.230469 972.445312 1033.335938 C 1063.464844 1023.441406 1195.863281 1044.976562 1359.117188 1135.226562 C 1522.371094 1225.472656 1716.484375 1384.429688 1787.085938 1439.355469 C 1857.6875 1494.277344 1804.777344 1445.164062 1751.871094 1396.050781 L 1677.566406 1569.179688 Z M -485.839844 640.660156 " fill-opacity="1" fill-rule="nonzero"/></g></g></g></g><g clip-path="url(#586b75a5f8)"><g clip-path="url(#0ca1feb65b)"><g clip-path="url(#3e96170d84)"><path fill="#595973" d="M 2349.707031 301.101562 C 2349.707031 301.101562 2052.488281 993.613281 2052.488281 993.613281 C 1910.089844 918.828125 1767.691406 844.039062 1637.757812 772.050781 C 1507.828125 700.0625 1390.363281 630.875 1303.078125 584.839844 C 1215.792969 538.808594 1158.683594 515.929688 1044.691406 494.445312 C 930.699219 472.964844 759.816406 452.878906 614.410156 422.53125 C 469.003906 392.1875 349.070312 351.582031 211.394531 257.25 C 73.71875 162.914062 -81.699219 14.847656 -138.371094 -26.132812 C -195.046875 -67.113281 -152.984375 -1.007812 -110.917969 65.097656 L 186.304688 -627.414062 Z M 2349.707031 301.101562 " fill-opacity="1" fill-rule="nonzero"/><path fill="#50506d" d="M 2349.707031 301.101562 C 2349.707031 301.101562 2126.792969 820.488281 2126.792969 820.488281 C 2032.945312 750.765625 1939.09375 681.042969 1835.390625 633.914062 C 1731.683594 586.785156 1618.121094 562.246094 1464.179688 525.847656 C 1310.234375 489.449219 1115.914062 441.1875 973.039062 386.808594 C 830.164062 332.433594 738.738281 271.941406 633.410156 205.164062 C 528.078125 138.386719 408.847656 65.324219 265.96875 -1.230469 C 123.09375 -67.78125 -43.429688 -127.828125 -97.800781 -144.542969 C -152.171875 -161.257812 -94.390625 -134.644531 -36.613281 -108.03125 L 186.304688 -627.414062 Z M 2349.707031 301.101562 " fill-opacity="1" fill-rule="nonzero"/></g></g></g><g clip-path="url(#d0a63a4194)"><g clip-path="url(#1597ecd437)"><g clip-path="url(#f94cbe9fa2)"><g clip-path="url(#4aa9014b49)"><path fill="#454566" d="M 2349.707031 301.101562 C 2349.707031 301.101562 2201.097656 647.359375 2201.097656 647.359375 C 2057.039062 560.058594 1912.984375 472.757812 1808.636719 409.726562 C 1704.292969 346.691406 1639.65625 307.921875 1535.425781 300.152344 C 1431.195312 292.378906 1287.375 315.605469 1164.15625 281.757812 C 1040.941406 247.910156 938.328125 156.988281 828.570312 60.84375 C 718.8125 -35.304688 601.910156 -136.675781 450.644531 -180.804688 C 299.378906 -224.933594 113.75 -211.820312 39.199219 -219.007812 C -35.351562 -226.191406 1.167969 -253.675781 37.691406 -281.160156 L 186.304688 -627.414062 Z M 2349.707031 301.101562 " fill-opacity="1" fill-rule="nonzero"/></g></g></g></g><g clip-path="url(#36fca56a26)"><g clip-path="url(#fcc0ee1cd6)"><g clip-path="url(#30c4724eec)"><g clip-path="url(#ebe80a652d)"><path fill="#39395f" d="M 2349.707031 301.101562 C 2349.707031 301.101562 2275.402344 474.230469 2275.402344 474.230469 C 2148.394531 380.9375 2021.386719 287.644531 1929 248.675781 C 1836.609375 209.703125 1778.847656 225.054688 1643.40625 161.980469 C 1507.964844 98.902344 1294.851562 -42.605469 1163.46875 -92.699219 C 1032.089844 -142.789062 982.445312 -101.464844 891.421875 -91.574219 C 800.402344 -81.679688 668.003906 -103.214844 504.75 -193.460938 C 341.496094 -283.707031 147.386719 -442.667969 76.785156 -497.589844 C 6.183594 -552.515625 59.089844 -503.398438 112 -454.285156 L 186.304688 -627.414062 Z M 2349.707031 301.101562 " fill-opacity="1" fill-rule="nonzero"/></g></g></g></g></svg>